<?xml version="1.0" standalone="no"?>
<!DOCTYPE svg PUBLIC "-//W3C//DTD SVG 20010904//EN"
 "http://www.w3.org/TR/2001/REC-SVG-20010904/DTD/svg10.dtd">
<svg version="1.0" xmlns="http://www.w3.org/2000/svg"
 width="354.000000pt" height="369.000000pt" viewBox="0 0 354.000000 369.000000"
 preserveAspectRatio="xMidYMid meet">
<metadata>
Created by potrace 1.16, written by Peter Selinger 2001-2019
</metadata>
<g transform="translate(0.000000,369.000000) scale(0.100000,-0.100000)"
fill="#000000" stroke="none">
<path d="M1445 3624 c-275 -43 -525 -274 -596 -552 -26 -102 -25 -243 1 -347
24 -93 23 -85 5 -85 -8 0 -45 -27 -82 -61 -37 -33 -147 -120 -243 -192 -198
-149 -316 -261 -351 -333 -69 -143 -8 -297 134 -335 89 -24 189 44 514 352 70
67 161 151 202 187 l73 66 37 -22 c20 -12 55 -32 79 -44 l42 -22 0 -200 c1
-268 35 -890 68 -1201 l7 -70 340 1 c335 2 536 11 830 39 83 8 303 21 490 30
446 20 483 23 495 45 12 22 -2 191 -30 363 -45 284 -65 644 -91 1642 -9 341
-15 453 -24 464 -11 12 -71 12 -392 1 -208 -7 -474 -11 -590 -9 l-213 4 -42
47 c-137 149 -311 228 -518 233 -63 2 -128 1 -145 -1z m317 -97 c250 -80 432
-293 468 -549 42 -290 -176 -617 -475 -715 -150 -49 -325 -33 -480 44 -77 39
-190 127 -236 186 -52 65 -104 174 -125 264 -20 85 -15 255 11 328 79 232 249
393 479 456 98 27 250 21 358 -14z m1532 -544 c9 -409 33 -1078 46 -1283 14
-218 27 -341 50 -480 11 -63 23 -154 26 -201 l7 -87 -59 -6 c-33 -3 -174 -10
-314 -16 -332 -14 -563 -28 -625 -40 -112 -21 -1012 -58 -1026 -42 -15 17 -69
963 -69 1216 l0 158 27 -7 c212 -54 346 -44 519 40 166 80 316 248 385 430
l32 85 313 0 c271 0 315 2 328 16 12 11 13 20 6 35 -10 18 -27 19 -320 21
l-310 3 -4 100 c-4 105 -27 199 -72 287 -13 26 -24 50 -24 53 0 3 143 6 318 6
174 1 385 5 467 9 83 3 182 7 221 8 l71 2 7 -307z m-2366 -452 c19 -32 53 -81
77 -108 l43 -49 -69 -63 c-58 -52 -72 -60 -88 -52 -10 6 -53 47 -95 93 l-76
82 82 77 c46 43 85 78 88 78 3 0 20 -26 38 -58z m-222 -188 c21 -27 63 -71 92
-99 l53 -51 -128 -121 c-222 -209 -320 -282 -379 -282 -37 0 -89 37 -108 77
-38 80 -8 163 95 264 64 63 313 259 329 259 4 0 25 -21 46 -47z"/>
<path d="M1455 3363 c-158 -57 -272 -181 -320 -347 -22 -76 -16 -198 14 -276
44 -114 146 -215 271 -267 58 -25 77 -28 180 -28 108 0 119 2 181 31 163 78
281 283 266 464 -15 179 -149 350 -324 412 -82 29 -204 34 -268 11z m177 -64
c129 -27 247 -118 304 -234 26 -54 29 -70 29 -160 0 -96 -2 -103 -38 -177 -68
-135 -167 -206 -300 -216 -172 -12 -351 96 -408 247 -55 147 -22 304 89 423
51 55 111 93 175 113 53 17 83 18 149 4z"/>
<path d="M2620 2449 c-47 -5 -163 -13 -259 -17 -144 -6 -176 -10 -184 -23 -6
-9 -7 -24 -3 -34 6 -16 21 -17 174 -12 203 6 508 26 542 35 18 6 25 14 25 32
0 25 0 25 -105 26 -58 1 -143 -2 -190 -7z"/>
<path d="M2660 2053 c-19 -2 -230 -7 -469 -11 -389 -6 -435 -9 -444 -24 -8
-12 -7 -21 2 -32 12 -14 50 -16 291 -16 357 0 841 18 858 33 7 5 12 20 10 31
-3 20 -10 21 -108 22 -58 1 -121 -1 -140 -3z"/>
<path d="M2349 1709 c-247 -7 -536 -26 -551 -35 -13 -8 -9 -41 6 -53 11 -9 47
-9 148 -2 73 6 333 16 578 22 470 12 490 15 464 57 -10 15 -33 17 -205 18
-107 1 -305 -2 -440 -7z"/>
<path d="M2240 1319 c-326 -11 -490 -25 -507 -42 -15 -14 -9 -43 10 -50 7 -2
62 -1 122 3 61 5 315 13 565 20 250 6 465 14 478 16 19 4 23 10 20 32 l-3 27
-220 1 c-121 1 -330 -3 -465 -7z"/>
<path d="M1104 411 c-56 -24 -87 -117 -64 -194 24 -81 79 -127 153 -129 102
-2 165 49 188 151 14 64 -30 127 -108 155 -54 19 -143 28 -169 17z m156 -96
c46 -24 53 -39 40 -80 -12 -37 -59 -75 -92 -75 -72 0 -123 95 -87 162 10 18
17 20 62 14 27 -4 62 -13 77 -21z"/>
</g>
</svg>
